<mxfile host="app.diagrams.net" modified="2023-09-17T08:59:41.455Z" agent="Mozilla/5.0 (Windows NT 10.0; Win64; x64; rv:109.0) Gecko/20100101 Firefox/117.0" etag="IJs6UWOvsehMp7zzFfN8" version="21.7.5" type="github">
  <diagram name="Page-1" id="f7bl19VHP47R1WXlkz93">
    <mxGraphModel dx="1050" dy="566" grid="1" gridSize="10" guides="1" tooltips="1" connect="1" arrows="1" fold="1" page="1" pageScale="1" pageWidth="850" pageHeight="1100" math="0" shadow="0">
      <root>
        <mxCell id="0" />
        <mxCell id="1" parent="0" />
        <mxCell id="Kl4VBvjjT9QJ_ADB6XCW-11" style="edgeStyle=orthogonalEdgeStyle;rounded=0;orthogonalLoop=1;jettySize=auto;html=1;entryX=0.529;entryY=0.167;entryDx=0;entryDy=0;entryPerimeter=0;" parent="1" source="Kl4VBvjjT9QJ_ADB6XCW-1" target="Kl4VBvjjT9QJ_ADB6XCW-4" edge="1">
          <mxGeometry relative="1" as="geometry" />
        </mxCell>
        <mxCell id="Kl4VBvjjT9QJ_ADB6XCW-1" value="users" style="verticalLabelPosition=bottom;shadow=0;dashed=0;align=center;html=1;verticalAlign=top;strokeWidth=1;shape=mxgraph.mockup.containers.userMale;strokeColor=#666666;strokeColor2=#008cff;" parent="1" vertex="1">
          <mxGeometry x="380" y="60" width="70" height="60" as="geometry" />
        </mxCell>
        <mxCell id="Kl4VBvjjT9QJ_ADB6XCW-4" value="DNS- demo.com" style="rounded=0;whiteSpace=wrap;html=1;" parent="1" vertex="1">
          <mxGeometry x="230" y="160" width="350" height="60" as="geometry" />
        </mxCell>
        <mxCell id="Kl4VBvjjT9QJ_ADB6XCW-5" value="CDN (certificado de seguridad, reglas de redireccionamiento)" style="rounded=0;whiteSpace=wrap;html=1;" parent="1" vertex="1">
          <mxGeometry x="230" y="230" width="260" height="60" as="geometry" />
        </mxCell>
        <mxCell id="Kl4VBvjjT9QJ_ADB6XCW-7" value="WAF" style="rounded=0;whiteSpace=wrap;html=1;" parent="1" vertex="1">
          <mxGeometry x="500" y="230" width="80" height="60" as="geometry" />
        </mxCell>
        <mxCell id="Kl4VBvjjT9QJ_ADB6XCW-8" value="&lt;div&gt;BALANCEADOR-API GATEWAY&lt;/div&gt;&lt;div&gt;&lt;br&gt;&lt;/div&gt;" style="rounded=0;whiteSpace=wrap;html=1;" parent="1" vertex="1">
          <mxGeometry x="232" y="300" width="258" height="60" as="geometry" />
        </mxCell>
        <mxCell id="Kl4VBvjjT9QJ_ADB6XCW-9" value="AUTH AND AUTO" style="rounded=0;whiteSpace=wrap;html=1;" parent="1" vertex="1">
          <mxGeometry x="500" y="300" width="80" height="60" as="geometry" />
        </mxCell>
        <mxCell id="Kl4VBvjjT9QJ_ADB6XCW-10" value="&lt;div&gt;BACKEND-(servidores, funciones, contenedore)&lt;/div&gt;" style="rounded=0;whiteSpace=wrap;html=1;fillColor=#fff2cc;strokeColor=#d6b656;" parent="1" vertex="1">
          <mxGeometry x="230" y="370" width="350" height="50" as="geometry" />
        </mxCell>
        <mxCell id="Kl4VBvjjT9QJ_ADB6XCW-12" value="&lt;div&gt;PRIVADA&lt;br&gt;&lt;/div&gt;" style="text;html=1;strokeColor=none;fillColor=none;align=center;verticalAlign=middle;whiteSpace=wrap;rounded=0;" parent="1" vertex="1">
          <mxGeometry x="570" y="370" width="90" height="50" as="geometry" />
        </mxCell>
        <mxCell id="Kl4VBvjjT9QJ_ADB6XCW-15" style="edgeStyle=orthogonalEdgeStyle;rounded=0;orthogonalLoop=1;jettySize=auto;html=1;" parent="1" source="Kl4VBvjjT9QJ_ADB6XCW-13" target="Kl4VBvjjT9QJ_ADB6XCW-14" edge="1">
          <mxGeometry relative="1" as="geometry" />
        </mxCell>
        <mxCell id="Kl4VBvjjT9QJ_ADB6XCW-13" value="DB-M" style="shape=cylinder3;whiteSpace=wrap;html=1;boundedLbl=1;backgroundOutline=1;size=15;" parent="1" vertex="1">
          <mxGeometry x="262" y="430" width="60" height="80" as="geometry" />
        </mxCell>
        <mxCell id="Kl4VBvjjT9QJ_ADB6XCW-14" value="S" style="shape=cylinder3;whiteSpace=wrap;html=1;boundedLbl=1;backgroundOutline=1;size=15;" parent="1" vertex="1">
          <mxGeometry x="492" y="430" width="60" height="80" as="geometry" />
        </mxCell>
        <mxCell id="Kl4VBvjjT9QJ_ADB6XCW-16" value="ALMACENMIENTO" style="rounded=0;whiteSpace=wrap;html=1;" parent="1" vertex="1">
          <mxGeometry x="232" y="520" width="350" height="50" as="geometry" />
        </mxCell>
        <mxCell id="Kl4VBvjjT9QJ_ADB6XCW-17" value="CONECTIVIDAD" style="rounded=0;whiteSpace=wrap;html=1;" parent="1" vertex="1">
          <mxGeometry x="232" y="590" width="350" height="50" as="geometry" />
        </mxCell>
        <mxCell id="Kl4VBvjjT9QJ_ADB6XCW-19" value="&lt;font size=&quot;1&quot;&gt;OBSERVABILIDAD&lt;/font&gt;" style="rounded=1;whiteSpace=wrap;html=1;" parent="1" vertex="1">
          <mxGeometry x="50" y="160" width="120" height="60" as="geometry" />
        </mxCell>
        <mxCell id="Kl4VBvjjT9QJ_ADB6XCW-20" value="COMPLIANCE" style="rounded=1;whiteSpace=wrap;html=1;" parent="1" vertex="1">
          <mxGeometry x="50" y="240" width="120" height="60" as="geometry" />
        </mxCell>
        <mxCell id="Kl4VBvjjT9QJ_ADB6XCW-21" value="AUDITORIA" style="rounded=1;whiteSpace=wrap;html=1;" parent="1" vertex="1">
          <mxGeometry x="50" y="320" width="120" height="60" as="geometry" />
        </mxCell>
        <mxCell id="Kl4VBvjjT9QJ_ADB6XCW-22" value="CIFRADO-KMS" style="rounded=1;whiteSpace=wrap;html=1;" parent="1" vertex="1">
          <mxGeometry x="50" y="400" width="120" height="60" as="geometry" />
        </mxCell>
      </root>
    </mxGraphModel>
  </diagram>
</mxfile>
